<mxfile host="app.diagrams.net" modified="2024-01-21T14:36:25.002Z" agent="Mozilla/5.0 (Windows NT 10.0; Win64; x64) AppleWebKit/537.36 (KHTML, like Gecko) Chrome/120.0.0.0 Safari/537.36 Edg/120.0.0.0" version="22.1.21" etag="jzO3ROxnkPSwiXi3fEH3" type="github">
  <diagram name="Page-1" id="OFFVZ929K8z-k6nWSJ4D">
    <mxGraphModel>
      <root>
        <mxCell id="0" />
        <mxCell id="1" parent="0" />
      </root>
    </mxGraphModel>
  </diagram>
</mxfile>
